<svg preserveAspectRatio="none" overflow="visible" style="display: block;" width="24" height="24" viewBox="0 0 24 24" fill="none" xmlns="http://www.w3.org/2000/svg">
<g id="volume-high">
<g id="Union">
<mask id="path-1-inside-1_0_1341" fill="white">
<path d="M10.0104 4.22985C11.4703 3.32009 12.9003 3.16069 14.0202 3.78063C15.13 4.40071 15.7497 5.69069 15.7497 7.41052V16.5902C15.7497 18.3101 15.1301 19.6001 14.0202 20.2201C13.5703 20.47 13.0703 20.5901 12.5505 20.5902C11.7505 20.5902 10.8904 20.3198 10.0104 19.7699L7.08952 17.9398C6.88973 17.8201 6.66003 17.7504 6.43034 17.7504H4.99967C2.57995 17.7502 1.24975 16.4201 1.24967 14.0004V10.0004C1.24967 7.58047 2.57988 6.25048 4.99967 6.25036H6.43034C6.66013 6.25029 6.88968 6.17978 7.08952 6.05993L10.0104 4.22985ZM19.3805 4.89977C19.7105 4.65006 20.1804 4.72027 20.4303 5.05016C23.5 9.14005 23.5 14.8597 20.4303 18.9496C20.2903 19.1496 20.0598 19.2494 19.8298 19.2494C19.67 19.2493 19.5203 19.1997 19.3805 19.1C19.0506 18.85 18.9803 18.3802 19.2301 18.0502C21.9001 14.4902 21.9001 9.50958 19.2301 5.94958C18.9802 5.61958 19.0506 5.14974 19.3805 4.89977ZM17.5505 7.39977C17.8804 7.15005 18.3503 7.22027 18.6003 7.55016C20.5599 10.17 20.56 13.8297 18.6003 16.4496C18.4503 16.6496 18.2297 16.7494 17.9997 16.7494C17.8399 16.7493 17.6903 16.6997 17.5505 16.6C17.2205 16.35 17.1502 15.8802 17.4001 15.5502C18.9701 13.4602 18.9701 10.5396 17.4001 8.44958C17.1502 8.11958 17.2205 7.64974 17.5505 7.39977Z"/>
</mask>
<path d="M10.0104 4.22985C11.4703 3.32009 12.9003 3.16069 14.0202 3.78063C15.13 4.40071 15.7497 5.69069 15.7497 7.41052V16.5902C15.7497 18.3101 15.1301 19.6001 14.0202 20.2201C13.5703 20.47 13.0703 20.5901 12.5505 20.5902C11.7505 20.5902 10.8904 20.3198 10.0104 19.7699L7.08952 17.9398C6.88973 17.8201 6.66003 17.7504 6.43034 17.7504H4.99967C2.57995 17.7502 1.24975 16.4201 1.24967 14.0004V10.0004C1.24967 7.58047 2.57988 6.25048 4.99967 6.25036H6.43034C6.66013 6.25029 6.88968 6.17978 7.08952 6.05993L10.0104 4.22985ZM19.3805 4.89977C19.7105 4.65006 20.1804 4.72027 20.4303 5.05016C23.5 9.14005 23.5 14.8597 20.4303 18.9496C20.2903 19.1496 20.0598 19.2494 19.8298 19.2494C19.67 19.2493 19.5203 19.1997 19.3805 19.1C19.0506 18.85 18.9803 18.3802 19.2301 18.0502C21.9001 14.4902 21.9001 9.50958 19.2301 5.94958C18.9802 5.61958 19.0506 5.14974 19.3805 4.89977ZM17.5505 7.39977C17.8804 7.15005 18.3503 7.22027 18.6003 7.55016C20.5599 10.17 20.56 13.8297 18.6003 16.4496C18.4503 16.6496 18.2297 16.7494 17.9997 16.7494C17.8399 16.7493 17.6903 16.6997 17.5505 16.6C17.2205 16.35 17.1502 15.8802 17.4001 15.5502C18.9701 13.4602 18.9701 10.5396 17.4001 8.44958C17.1502 8.11958 17.2205 7.64974 17.5505 7.39977Z" fill="url(#paint0_linear_0_1341)"/>
<path d="M10.0104 4.22985L9.89288 4.04125L9.89243 4.04154L10.0104 4.22985ZM14.0202 3.78063L14.1286 3.58664L14.1278 3.58621L14.0202 3.78063ZM15.7497 7.41052H15.9719H15.7497ZM15.7497 16.5902L15.9719 16.5902V16.5902H15.7497ZM14.0202 20.2201L14.1281 20.4143L14.1286 20.4141L14.0202 20.2201ZM12.5505 20.5902V20.8124H12.5505L12.5505 20.5902ZM10.0104 19.7699L9.89243 19.9582L9.89264 19.9583L10.0104 19.7699ZM7.08952 17.9398L7.20753 17.7515L7.20377 17.7492L7.08952 17.9398ZM6.43034 17.7504L6.4304 17.5281H6.43034V17.7504ZM4.99967 17.7504L4.99966 17.9726H4.99967V17.7504ZM1.24967 14.0004H1.02745V14.0004L1.24967 14.0004ZM4.99967 6.25036V6.02814H4.99966L4.99967 6.25036ZM6.43034 6.25036V6.47258H6.4304L6.43034 6.25036ZM7.08952 6.05993L7.20383 6.25054L7.2075 6.24824L7.08952 6.05993ZM19.3805 4.89977L19.2464 4.72257L19.2463 4.72264L19.3805 4.89977ZM20.4303 5.05016L20.6081 4.91677L20.6075 4.91597L20.4303 5.05016ZM20.4303 18.9496L20.2525 18.8161L20.2483 18.8221L20.4303 18.9496ZM19.8298 19.2494L19.8297 19.4716H19.8298V19.2494ZM19.3805 19.1L19.2463 19.2772L19.2515 19.2809L19.3805 19.1ZM19.2301 18.0502L19.4073 18.1843L19.4079 18.1835L19.2301 18.0502ZM19.2301 5.94958L19.4079 5.81624L19.4073 5.81542L19.2301 5.94958ZM17.5505 7.39977L17.4164 7.22257L17.4163 7.22264L17.5505 7.39977ZM18.6003 7.55016L18.7782 7.41706L18.7774 7.41597L18.6003 7.55016ZM18.6003 16.4496L18.778 16.5829L18.7782 16.5827L18.6003 16.4496ZM17.9997 16.7494L17.9996 16.9716H17.9997V16.7494ZM17.5505 16.6L17.4162 16.7772L17.4214 16.7809L17.5505 16.6ZM17.4001 15.5502L17.5772 15.6843L17.5777 15.6836L17.4001 15.5502ZM17.4001 8.44958L17.5777 8.31611L17.5772 8.31542L17.4001 8.44958ZM10.0104 4.22985L10.1279 4.41845C11.5461 3.53467 12.887 3.40736 13.9126 3.97505L14.0202 3.78063L14.1278 3.58621C12.9135 2.91403 11.3944 3.10551 9.89288 4.04125L10.0104 4.22985ZM14.0202 3.78063L13.9118 3.97463C14.9276 4.54222 15.5275 5.73986 15.5275 7.41052H15.7497H15.9719C15.9719 5.64152 15.3323 4.2592 14.1286 3.58664L14.0202 3.78063ZM15.7497 7.41052H15.5275V16.5902H15.7497H15.9719V7.41052H15.7497ZM15.7497 16.5902L15.5275 16.5902C15.5274 18.2609 14.9277 19.4585 13.9118 20.0261L14.0202 20.2201L14.1286 20.4141C15.3324 19.7416 15.9719 18.3592 15.9719 16.5902L15.7497 16.5902ZM14.0202 20.2201L13.9123 20.0258C13.4979 20.256 13.0355 20.3679 12.5504 20.368L12.5505 20.5902L12.5505 20.8124C13.1051 20.8124 13.6427 20.684 14.1281 20.4143L14.0202 20.2201ZM12.5505 20.5902V20.368C11.8012 20.368 10.9814 20.1147 10.1282 19.5814L10.0104 19.7699L9.89264 19.9583C10.7993 20.525 11.6998 20.8124 12.5505 20.8124V20.5902ZM10.0104 19.7699L10.1284 19.5816L7.2075 17.7515L7.08952 17.9398L6.97153 18.1281L9.89243 19.9582L10.0104 19.7699ZM7.08952 17.9398L7.20377 17.7492C6.97312 17.611 6.70436 17.5282 6.4304 17.5281L6.43034 17.7504L6.43027 17.9726C6.61571 17.9726 6.80634 18.0292 6.97527 18.1304L7.08952 17.9398ZM6.43034 17.7504V17.5281H4.99967V17.7504V17.9726H6.43034V17.7504ZM4.99967 17.7504L4.99969 17.5281C3.82942 17.5281 2.95587 17.207 2.37444 16.6256C1.79301 16.0442 1.47193 15.1706 1.4719 14.0004L1.24967 14.0004L1.02745 14.0004C1.02749 15.2498 1.37155 16.2512 2.06017 16.9399C2.7488 17.6285 3.7502 17.9725 4.99966 17.9726L4.99967 17.7504ZM1.24967 14.0004H1.4719V10.0004H1.24967H1.02745V14.0004H1.24967ZM1.24967 10.0004H1.4719C1.4719 8.83002 1.79296 7.95648 2.37438 7.37508C2.95581 6.79368 3.82938 6.47264 4.99969 6.47258L4.99967 6.25036L4.99966 6.02814C3.75017 6.0282 2.74875 6.37221 2.06012 7.06081C1.37149 7.74941 1.02745 8.75081 1.02745 10.0004H1.24967ZM4.99967 6.25036V6.47258H6.43034V6.25036V6.02814H4.99967V6.25036ZM6.43034 6.25036L6.4304 6.47258C6.70501 6.4725 6.97362 6.38856 7.20381 6.25051L7.08952 6.05993L6.97523 5.86935C6.80574 5.971 6.61524 6.02808 6.43027 6.02814L6.43034 6.25036ZM7.08952 6.05993L7.2075 6.24824L10.1284 4.41816L10.0104 4.22985L9.89243 4.04154L6.97153 5.87162L7.08952 6.05993ZM19.3805 4.89977L19.5146 5.07697C19.7445 4.90301 20.0756 4.94996 20.2532 5.18435L20.4303 5.05016L20.6075 4.91597C20.2852 4.49058 19.6765 4.3971 19.2464 4.72257L19.3805 4.89977ZM20.4303 5.05016L20.2526 5.18356C23.263 9.19441 23.263 14.8054 20.2526 18.8162L20.4303 18.9496L20.6081 19.083C23.7371 14.9141 23.7371 9.08569 20.6081 4.91677L20.4303 5.05016ZM20.4303 18.9496L20.2483 18.8221C20.1558 18.9543 19.9982 19.0272 19.8298 19.0272V19.2494V19.4716C20.1213 19.4716 20.4249 19.3449 20.6124 19.077L20.4303 18.9496ZM19.8298 19.2494L19.8298 19.0272C19.7196 19.0271 19.6145 18.9939 19.5096 18.9191L19.3805 19.1L19.2515 19.2809C19.4261 19.4055 19.6204 19.4715 19.8297 19.4716L19.8298 19.2494ZM19.3805 19.1L19.5147 18.9228C19.2803 18.7452 19.2333 18.4141 19.4073 18.1843L19.2301 18.0502L19.053 17.916C18.7273 18.3462 18.8209 18.9548 19.2463 19.2771L19.3805 19.1ZM19.2301 18.0502L19.4079 18.1835C22.1372 14.5445 22.1372 9.45526 19.4079 5.81625L19.2301 5.94958L19.0524 6.08291C21.6631 9.5639 21.6631 14.4358 19.0524 17.9168L19.2301 18.0502ZM19.2301 5.94958L19.4073 5.81542C19.2333 5.58561 19.2802 5.25457 19.5147 5.07691L19.3805 4.89977L19.2463 4.72264C18.8209 5.04492 18.7272 5.65356 19.053 6.08373L19.2301 5.94958ZM17.5505 7.39977L17.6846 7.57697C17.9144 7.40301 18.2456 7.44996 18.4231 7.68436L18.6003 7.55016L18.7774 7.41597C18.4551 6.99058 17.8464 6.8971 17.4164 7.22257L17.5505 7.39977ZM18.6003 7.55016L18.4223 7.68327C20.323 10.2242 20.323 13.7755 18.4223 16.3165L18.6003 16.4496L18.7782 16.5827C20.7969 13.8839 20.7969 10.1159 18.7782 7.41706L18.6003 7.55016ZM18.6003 16.4496L18.4225 16.3162C18.3166 16.4575 18.1633 16.5272 17.9997 16.5272V16.7494V16.9716C18.296 16.9716 18.584 16.8417 18.778 16.5829L18.6003 16.4496ZM17.9997 16.7494L17.9998 16.5272C17.8896 16.5271 17.7844 16.4939 17.6795 16.4191L17.5505 16.6L17.4214 16.7809C17.5961 16.9055 17.7903 16.9715 17.9996 16.9716L17.9997 16.7494ZM17.5505 16.6L17.6846 16.4228C17.4502 16.2452 17.4032 15.9141 17.5772 15.6843L17.4001 15.5502L17.2229 15.416C16.8972 15.8462 16.9909 16.4548 17.4163 16.7771L17.5505 16.6ZM17.4001 15.5502L17.5777 15.6836C19.2071 13.5146 19.2071 10.4852 17.5777 8.31611L17.4001 8.44958L17.2224 8.58305C18.733 10.594 18.733 13.4058 17.2224 15.4167L17.4001 15.5502ZM17.4001 8.44958L17.5772 8.31542C17.4032 8.08561 17.4501 7.75457 17.6846 7.57691L17.5505 7.39977L17.4163 7.22264C16.9909 7.54492 16.8972 8.15356 17.2229 8.58373L17.4001 8.44958Z" fill="white" mask="url(#path-1-inside-1_0_1341)"/>
</g>
<g id="Vector" opacity="0">
</g>
</g>
<defs>
<linearGradient id="paint0_linear_0_1341" x1="11.9911" y1="3.40893" x2="11.9911" y2="20.5902" gradientUnits="userSpaceOnUse">
<stop stop-color="white"/>
<stop offset="1" stop-color="white" stop-opacity="0.5"/>
</linearGradient>
</defs>
</svg>
